<?xml version="1.0" encoding="utf-8"?>
<!-- Generator: Adobe Illustrator 22.1.0, SVG Export Plug-In . SVG Version: 6.00 Build 0)  -->
<svg version="1.1" id="Layer_1" xmlns="http://www.w3.org/2000/svg" xmlns:xlink="http://www.w3.org/1999/xlink" x="0px" y="0px"
	 viewBox="0 0 1000 1000" style="enable-background:new 0 0 1000 1000;" xml:space="preserve">
<style type="text/css">
	.st0{fill:#6AAEB7;}
	.st1{fill:#77C4D3;}
	.st2{fill:#FFFFFF;}
</style>
<g>
	<g>
		<g>
			<path class="st0" d="M208.5,378.5c0-124.4,48-237.5,126.5-321.9C155.1,123.6,27,296.8,27,500c0,261.2,211.8,473,473,473
				c136.9,0,260.1-58.2,346.5-151.1c-51.4,19.1-107,29.6-165,29.6C420.3,851.5,208.5,639.8,208.5,378.5z"/>
		</g>
		<g>
			<path class="st1" d="M500,27c-58,0-113.6,10.5-165,29.6C256.5,141,208.5,254.2,208.5,378.5c0,261.2,211.8,473,473,473
				c58,0,113.6-10.5,165-29.6C925,737.5,973,624.4,973,500C973,238.8,761.2,27,500,27z"/>
		</g>
	</g>
	<path class="st2" d="M835,292.9c-12.3-12.3-32.2-12.3-44.5,0L441.9,641.5L209.5,409.1c-5.9-5.9-13.8-9.2-22.2-9.2
		s-16.3,3.3-22.2,9.2c-12.3,12.3-12.3,32.2,0,44.5l253.6,253.6c6.1,6.1,14.6,9.5,23.2,9.2c0.3,0,0.7,0,1,0c8.3,0,16.3-3.3,22.2-9.2
		L835,337.3C847.2,325.1,847.2,305.1,835,292.9z"/>
</g>
</svg>
